<svg xmlns="http://www.w3.org/2000/svg" viewBox="0 0 512 512" width="512" height="512"><defs><linearGradient id="sky" x1="0" y1="0" x2="0" y2="1"><stop offset="0" stop-color="#1B7A4B"/><stop offset="0.55" stop-color="#0F5132"/><stop offset="1" stop-color="#0A2A1C"/></linearGradient><clipPath id="r"><rect width="512" height="512" rx="120"/></clipPath></defs><rect width="512" height="512" rx="120" fill="url(#sky)"/><g clip-path="url(#r)"><g fill="#0B3D26" opacity="0.85"><path d="M70,470 L44,412 L96,412 Z"/><path d="M70,436 L48,384 L92,384 Z"/><path d="M70,406 L53,366 L87,366 Z"/></g><g fill="#0B3D26" opacity="0.85"><path d="M150,478 L124,420 L176,420 Z"/><path d="M150,444 L128,392 L172,392 Z"/><path d="M150,414 L133,374 L167,374 Z"/></g><g fill="#0B3D26" opacity="0.85"><path d="M430,470 L404,412 L456,412 Z"/><path d="M430,436 L408,384 L452,384 Z"/><path d="M430,406 L413,366 L447,366 Z"/></g><g fill="#0B3D26" opacity="0.85"><path d="M360,478 L334,420 L386,420 Z"/><path d="M360,444 L338,392 L382,392 Z"/><path d="M360,414 L343,374 L377,374 Z"/></g><g fill="#1B7A4B"><path d="M108,505 L78,443 L138,443 Z"/><path d="M108,469 L84,413 L132,413 Z"/><path d="M108,437 L90,395 L126,395 Z"/></g><g fill="#1B7A4B"><path d="M300,508 L270,446 L330,446 Z"/><path d="M300,472 L276,416 L324,416 Z"/><path d="M300,440 L282,398 L318,398 Z"/></g><rect x="0" y="454" width="512" height="58" fill="#0A2A1C" opacity="0.4"/></g><g transform="translate(46,12) scale(0.82)"><path d="M96,96 L186,150 L256,185 L326,150 L416,96 L396,250 L256,440 L116,250 Z" fill="#D97706"/><path d="M132,120 L186,150 L158,182 Z" fill="#7C3F16"/><path d="M380,120 L326,150 L354,182 Z" fill="#7C3F16"/><path d="M198,250 L314,250 L256,430 Z" fill="#FFF7ED"/><ellipse cx="208" cy="236" rx="17" ry="10" fill="#2B160B" transform="rotate(-18 208 236)"/><circle cx="306" cy="236" r="30" fill="#7C3F16"/><circle cx="306" cy="236" r="22" fill="#0E2540"/><circle cx="306" cy="236" r="13" fill="#2563EB"/><circle cx="306" cy="236" r="6" fill="#7DD3FC"/><circle cx="299" cy="228" r="4" fill="#F0F9FF" opacity="0.95"/><path d="M243,372 L269,372 L256,392 Z" fill="#2B160B"/></g><g transform="translate(258,300) scale(0.92)"><rect x="0" y="0" width="190" height="140" rx="14" fill="#FFF7ED" stroke="#0B3D26" stroke-width="9"/><path d="M8,13 L95,86 L182,13" fill="none" stroke="#0B3D26" stroke-width="9" stroke-linejoin="round" stroke-linecap="round"/><path d="M8,131 L72,74 M182,131 L118,74" stroke="#1B7A4B" stroke-width="7" stroke-linecap="round"/></g></svg>